<svg width="24" height="26" viewBox="0 0 24 26" fill="none" xmlns="http://www.w3.org/2000/svg">
<path fill-rule="evenodd" clip-rule="evenodd" d="M19 1C19 0.447715 18.5523 0 18 0C17.4477 0 17 0.447715 17 1V2H7V1C7 0.447715 6.55228 0 6 0C5.44772 0 5 0.447715 5 1V2H2C0.89543 2 0 2.89543 0 4V24C0 25.1046 0.89543 26 2 26H22C23.1046 26 24 25.1046 24 24V4C24 2.89543 23.1046 2 22 2H19V1ZM22 8V4H19V5C19 5.55228 18.5523 6 18 6C17.4477 6 17 5.55228 17 5V4H7V5C7 5.55228 6.55228 6 6 6C5.44772 6 5 5.55228 5 5V4H2V8H22ZM2 10H22V24H2V10Z" fill="black"/>
<path fill-rule="evenodd" clip-rule="evenodd" d="M17.2278 13.3142C17.6066 13.7162 17.5877 14.3491 17.1858 14.7278L11.3483 20.2278C10.9621 20.5916 10.3592 20.5906 9.97428 20.2255L6.81178 17.2255C6.4111 16.8454 6.39441 16.2125 6.7745 15.8118C7.15459 15.4111 7.78754 15.3944 8.18822 15.7745L10.6648 18.1239L15.8142 13.2722C16.2162 12.8934 16.8491 12.9123 17.2278 13.3142Z" fill="black"/>
</svg>
