<svg width="32" height="32" viewBox="0 0 32 32" fill="none" xmlns="http://www.w3.org/2000/svg">
<path fill-rule="evenodd" clip-rule="evenodd" d="M16 14C14.3431 14 13 15.3431 13 17C13 18.6569 14.3431 20 16 20C17.6569 20 19 18.6569 19 17C19 15.3431 17.6569 14 16 14ZM11 17C11 14.2386 13.2386 12 16 12C18.7614 12 21 14.2386 21 17C21 19.7614 18.7614 22 16 22C13.2386 22 11 19.7614 11 17Z" fill="black"/>
<path fill-rule="evenodd" clip-rule="evenodd" d="M16 22C14.9909 22 13.9957 22.2349 13.0931 22.6862C12.1906 23.1375 11.4055 23.7927 10.8 24.6C10.4686 25.0418 9.84183 25.1314 9.4 24.8C8.95817 24.4686 8.86863 23.8418 9.2 23.4C9.99175 22.3443 11.0184 21.4875 12.1987 20.8974C13.379 20.3072 14.6804 20 16 20C17.3196 20 18.621 20.3072 19.8013 20.8974C20.9816 21.4875 22.0082 22.3443 22.8 23.4C23.1314 23.8418 23.0418 24.4686 22.6 24.8C22.1582 25.1314 21.5314 25.0418 21.2 24.6C20.5945 23.7927 19.8094 23.1375 18.9069 22.6862C18.0043 22.2349 17.0091 22 16 22Z" fill="black"/>
<path fill-rule="evenodd" clip-rule="evenodd" d="M25 3C26.1046 3 27 3.89543 27 5V27C27 28.1046 26.1046 29 25 29H7C5.89543 29 5 28.1046 5 27V5C5 3.89543 5.89543 3 7 3H25ZM25 27V5H7V27H25Z" fill="black"/>
<path fill-rule="evenodd" clip-rule="evenodd" d="M11 8C11 7.44772 11.4477 7 12 7H20C20.5523 7 21 7.44772 21 8C21 8.55228 20.5523 9 20 9H12C11.4477 9 11 8.55228 11 8Z" fill="black"/>
</svg>
