<svg width="30" height="25" viewBox="0 0 30 25" fill="none" xmlns="http://www.w3.org/2000/svg">
<path fill-rule="evenodd" clip-rule="evenodd" d="M13.6505 0.874179C14.0171 0.538072 14.4963 0.351562 14.9937 0.351562C15.4911 0.351562 15.9702 0.537994 16.3368 0.873971L16.3397 0.87669L26.3471 9.95949L26.3616 9.97295C26.5592 10.1596 26.7175 10.3839 26.8271 10.6326C26.9367 10.8814 26.9955 11.1495 26.9999 11.4213L27 11.4375V23H29C29.5523 23 30 23.4477 30 24C30 24.5523 29.5523 25 29 25H1C0.447715 25 0 24.5523 0 24C0 23.4477 0.447715 23 1 23H3L3.00002 11.4423C3.00002 10.8846 3.22956 10.349 3.6506 9.96613C5.22129 8.53791 12.0456 2.33264 13.6505 0.874179ZM13 23H17V17H13V23ZM19 23V17C19 16.4696 18.7893 15.9609 18.4142 15.5858C18.0391 15.2107 17.5304 15 17 15H13C12.4696 15 11.9609 15.2107 11.5858 15.5858C11.2107 15.9609 11 16.4696 11 17V23H5L5.00002 11.4423C6.57766 10.0078 13.3871 3.81602 14.9938 2.35598L24.9906 11.4293C24.9932 11.4322 24.9954 11.4355 24.997 11.4391C24.9986 11.4429 24.9996 11.447 25 11.4511V23H19Z" fill="black"/>
</svg>
