<svg width="32" height="32" viewBox="0 0 32 32" fill="none" xmlns="http://www.w3.org/2000/svg">
<path fill-rule="evenodd" clip-rule="evenodd" d="M10 3C10 2.44772 10.4477 2 11 2H23C23.5523 2 24 2.44772 24 3C24 3.55228 23.5523 4 23 4H19.3257L20.9615 9.72528C21.1132 10.2563 20.8058 10.8098 20.2747 10.9615C19.7437 11.1132 19.1902 10.8058 19.0385 10.2747L17.2457 4H14V6.00006C15.6569 6.00006 17 7.34321 17 9.00006V15H22C23.2628 15 24.507 15.3995 25.4531 16.1564C26.4051 16.918 27 18.0049 27 19.2V27.2C27 27.7586 26.7212 28.2351 26.3318 28.5466C25.9482 28.8534 25.4671 29 25 29H7C6.53289 29 6.05176 28.8534 5.6682 28.5466C5.27885 28.2351 5 27.7586 5 27.2V19.2C5 18.0049 5.59492 16.918 6.54688 16.1564C7.24098 15.6011 8.09546 15.2382 9 15.0843V9.00006C9 7.34321 10.3431 6.00006 12 6.00006V4H11C10.4477 4 10 3.55228 10 3ZM16 17H10L9.99875 17C9.14026 17.0003 8.35012 17.275 7.79627 17.7181C7.24793 18.1568 7 18.6977 7 19.2V27H25V19.2C25 18.6977 24.7521 18.1568 24.2037 17.7181C23.6496 17.2748 22.859 17 22 17L16 17ZM11 9.00006V15H15V9.00006C15 8.44778 14.5523 8.00006 14 8.00006H12C11.4477 8.00006 11 8.44778 11 9.00006Z" fill="black"/>
</svg>
