<svg width="103" height="32" viewBox="0 0 103 32" fill="none" xmlns="http://www.w3.org/2000/svg">
<rect x="15.6585" y="23" width="8" height="4" fill="#BCD9CA"/>
<rect x="15.6585" y="17" width="8" height="4" fill="#E7F68E"/>
<path d="M15.6585 11H23.6585V15H15.6585V11Z" fill="#E7F68E"/>
<path d="M15.6585 5H21.6585C22.7631 5 23.6585 5.89543 23.6585 7V9H15.6585V5Z" fill="#E7F68E"/>
<rect x="5.65851" y="23" width="8" height="4" fill="#BCD9CA"/>
<rect x="5.65851" y="17" width="8" height="4" fill="#BCD9CA"/>
<path d="M5.65851 11H13.6585V15H5.65851V11Z" fill="#BCD9CA"/>
<path d="M5.65851 7C5.65851 5.89543 6.55394 5 7.65851 5H13.6585V9H5.65851V7Z" fill="#BCD9CA"/>
<path d="M46.08 21.78V24H37.61V9.54H40.3V21.78H46.08ZM51.6233 13.58C52.3833 13.58 53.0733 13.7033 53.6933 13.95C54.3199 14.1967 54.8533 14.5467 55.2933 15C55.7399 15.4533 56.0833 16.0067 56.3233 16.66C56.5633 17.3133 56.6833 18.0433 56.6833 18.85C56.6833 19.6633 56.5633 20.3967 56.3233 21.05C56.0833 21.7033 55.7399 22.26 55.2933 22.72C54.8533 23.18 54.3199 23.5333 53.6933 23.78C53.0733 24.0267 52.3833 24.15 51.6233 24.15C50.8566 24.15 50.1599 24.0267 49.5333 23.78C48.9066 23.5333 48.3699 23.18 47.9233 22.72C47.4833 22.26 47.1399 21.7033 46.8933 21.05C46.6533 20.3967 46.5333 19.6633 46.5333 18.85C46.5333 18.0433 46.6533 17.3133 46.8933 16.66C47.1399 16.0067 47.4833 15.4533 47.9233 15C48.3699 14.5467 48.9066 14.1967 49.5333 13.95C50.1599 13.7033 50.8566 13.58 51.6233 13.58ZM51.6233 22.25C52.4766 22.25 53.1066 21.9633 53.5133 21.39C53.9266 20.8167 54.1333 19.9767 54.1333 18.87C54.1333 17.7633 53.9266 16.92 53.5133 16.34C53.1066 15.76 52.4766 15.47 51.6233 15.47C50.7566 15.47 50.1133 15.7633 49.6933 16.35C49.2799 16.93 49.0733 17.77 49.0733 18.87C49.0733 19.97 49.2799 20.81 49.6933 21.39C50.1133 21.9633 50.7566 22.25 51.6233 22.25ZM65.0077 16.36C64.7277 16.02 64.421 15.78 64.0877 15.64C63.761 15.5 63.4077 15.43 63.0277 15.43C62.6543 15.43 62.3177 15.5 62.0177 15.64C61.7177 15.78 61.461 15.9933 61.2477 16.28C61.0343 16.56 60.871 16.92 60.7577 17.36C60.6443 17.7933 60.5877 18.3067 60.5877 18.9C60.5877 19.5 60.6343 20.01 60.7277 20.43C60.8277 20.8433 60.9677 21.1833 61.1477 21.45C61.3277 21.71 61.5477 21.9 61.8077 22.02C62.0677 22.1333 62.3577 22.19 62.6777 22.19C63.191 22.19 63.6277 22.0833 63.9877 21.87C64.3477 21.6567 64.6877 21.3533 65.0077 20.96V16.36ZM67.4777 9.14V24H65.9677C65.641 24 65.4343 23.85 65.3477 23.55L65.1377 22.56C64.7243 23.0333 64.2477 23.4167 63.7077 23.71C63.1743 24.0033 62.551 24.15 61.8377 24.15C61.2777 24.15 60.7643 24.0333 60.2977 23.8C59.831 23.5667 59.4277 23.23 59.0877 22.79C58.7543 22.3433 58.4943 21.7933 58.3077 21.14C58.1277 20.4867 58.0377 19.74 58.0377 18.9C58.0377 18.14 58.141 17.4333 58.3477 16.78C58.5543 16.1267 58.851 15.56 59.2377 15.08C59.6243 14.6 60.0877 14.2267 60.6277 13.96C61.1677 13.6867 61.7743 13.55 62.4477 13.55C63.021 13.55 63.511 13.64 63.9177 13.82C64.3243 14 64.6877 14.2433 65.0077 14.55V9.14H67.4777ZM73.6653 18.62C73.972 18.62 74.2386 18.58 74.4653 18.5C74.692 18.4133 74.8786 18.2967 75.0253 18.15C75.1786 18.0033 75.292 17.8267 75.3653 17.62C75.4453 17.4133 75.4853 17.1867 75.4853 16.94C75.4853 16.4333 75.332 16.0333 75.0253 15.74C74.7253 15.44 74.272 15.29 73.6653 15.29C73.0586 15.29 72.602 15.44 72.2953 15.74C71.9953 16.0333 71.8453 16.4333 71.8453 16.94C71.8453 17.18 71.882 17.4033 71.9553 17.61C72.0353 17.8167 72.1486 17.9967 72.2953 18.15C72.4486 18.2967 72.6386 18.4133 72.8653 18.5C73.0986 18.58 73.3653 18.62 73.6653 18.62ZM76.4553 24.46C76.4553 24.26 76.3953 24.0967 76.2753 23.97C76.1553 23.8433 75.992 23.7467 75.7853 23.68C75.5786 23.6067 75.3353 23.5533 75.0553 23.52C74.782 23.4867 74.4886 23.4633 74.1753 23.45C73.8686 23.43 73.5486 23.4133 73.2153 23.4C72.8886 23.3867 72.5686 23.36 72.2553 23.32C71.982 23.4733 71.7586 23.6533 71.5853 23.86C71.4186 24.0667 71.3353 24.3067 71.3353 24.58C71.3353 24.76 71.3786 24.9267 71.4653 25.08C71.5586 25.24 71.702 25.3767 71.8953 25.49C72.0953 25.6033 72.352 25.69 72.6653 25.75C72.9786 25.8167 73.362 25.85 73.8153 25.85C74.2753 25.85 74.672 25.8133 75.0053 25.74C75.3386 25.6733 75.612 25.5767 75.8253 25.45C76.0453 25.33 76.2053 25.1833 76.3053 25.01C76.4053 24.8433 76.4553 24.66 76.4553 24.46ZM78.9153 14.09V15.01C78.9153 15.3033 78.7386 15.4833 78.3853 15.55L77.4653 15.72C77.6053 16.0733 77.6753 16.46 77.6753 16.88C77.6753 17.3867 77.572 17.8467 77.3653 18.26C77.1653 18.6667 76.8853 19.0133 76.5253 19.3C76.1653 19.5867 75.7386 19.81 75.2453 19.97C74.7586 20.1233 74.232 20.2 73.6653 20.2C73.4653 20.2 73.272 20.19 73.0853 20.17C72.8986 20.15 72.7153 20.1233 72.5353 20.09C72.2153 20.2833 72.0553 20.5 72.0553 20.74C72.0553 20.9467 72.1486 21.1 72.3353 21.2C72.5286 21.2933 72.782 21.36 73.0953 21.4C73.4086 21.44 73.7653 21.4667 74.1653 21.48C74.5653 21.4867 74.9753 21.5067 75.3953 21.54C75.8153 21.5733 76.2253 21.6333 76.6253 21.72C77.0253 21.8 77.382 21.93 77.6953 22.11C78.0086 22.29 78.2586 22.5367 78.4453 22.85C78.6386 23.1567 78.7353 23.5533 78.7353 24.04C78.7353 24.4933 78.622 24.9333 78.3953 25.36C78.1753 25.7867 77.852 26.1667 77.4253 26.5C77.0053 26.8333 76.4853 27.1 75.8653 27.3C75.252 27.5067 74.552 27.61 73.7653 27.61C72.992 27.61 72.3186 27.5333 71.7453 27.38C71.172 27.2333 70.6953 27.0333 70.3153 26.78C69.9353 26.5333 69.652 26.2467 69.4653 25.92C69.2786 25.5933 69.1853 25.2533 69.1853 24.9C69.1853 24.42 69.3286 24.02 69.6153 23.7C69.9086 23.3733 70.3086 23.1133 70.8153 22.92C70.542 22.78 70.3253 22.5933 70.1653 22.36C70.0053 22.1267 69.9253 21.82 69.9253 21.44C69.9253 21.2867 69.952 21.13 70.0053 20.97C70.0653 20.8033 70.1486 20.64 70.2553 20.48C70.3686 20.32 70.5086 20.17 70.6753 20.03C70.842 19.8833 71.0386 19.7533 71.2653 19.64C70.7453 19.36 70.3353 18.9867 70.0353 18.52C69.742 18.0533 69.5953 17.5067 69.5953 16.88C69.5953 16.3733 69.6953 15.9167 69.8953 15.51C70.102 15.0967 70.3853 14.7467 70.7453 14.46C71.112 14.1667 71.542 13.9433 72.0353 13.79C72.5353 13.6367 73.0786 13.56 73.6653 13.56C74.1053 13.56 74.5186 13.6067 74.9053 13.7C75.292 13.7867 75.6453 13.9167 75.9653 14.09H78.9153ZM83.0417 13.74V24H80.5617V13.74H83.0417ZM83.3817 10.75C83.3817 10.9633 83.3384 11.1633 83.2517 11.35C83.1651 11.5367 83.0484 11.7 82.9017 11.84C82.7617 11.98 82.5951 12.0933 82.4017 12.18C82.2084 12.26 82.0017 12.3 81.7817 12.3C81.5684 12.3 81.3651 12.26 81.1717 12.18C80.9851 12.0933 80.8217 11.98 80.6817 11.84C80.5417 11.7 80.4284 11.5367 80.3417 11.35C80.2617 11.1633 80.2217 10.9633 80.2217 10.75C80.2217 10.53 80.2617 10.3233 80.3417 10.13C80.4284 9.93667 80.5417 9.77 80.6817 9.63C80.8217 9.49 80.9851 9.38 81.1717 9.3C81.3651 9.21333 81.5684 9.17 81.7817 9.17C82.0017 9.17 82.2084 9.21333 82.4017 9.3C82.5951 9.38 82.7617 9.49 82.9017 9.63C83.0484 9.77 83.1651 9.93667 83.2517 10.13C83.3384 10.3233 83.3817 10.53 83.3817 10.75ZM86.2798 24V15.6L85.3898 15.46C85.1965 15.42 85.0398 15.3533 84.9198 15.26C84.8065 15.16 84.7498 15.02 84.7498 14.84V13.83H86.2798V13.07C86.2798 12.4833 86.3665 11.9567 86.5398 11.49C86.7198 11.0233 86.9732 10.6267 87.2998 10.3C87.6332 9.97333 88.0365 9.72333 88.5098 9.55C88.9832 9.37667 89.5165 9.29 90.1098 9.29C90.5832 9.29 91.0232 9.35333 91.4298 9.48L91.3798 10.72C91.3732 10.8133 91.3465 10.89 91.2998 10.95C91.2532 11.0033 91.1898 11.0467 91.1098 11.08C91.0365 11.1067 90.9498 11.1267 90.8498 11.14C90.7498 11.1467 90.6432 11.15 90.5298 11.15C90.2365 11.15 89.9732 11.1833 89.7398 11.25C89.5132 11.31 89.3198 11.42 89.1598 11.58C88.9998 11.7333 88.8765 11.94 88.7898 12.2C88.7098 12.4533 88.6698 12.77 88.6698 13.15V13.83H91.3398V15.59H88.7498V24H86.2798ZM102.048 13.74L96.4578 26.82C96.3845 26.9933 96.2878 27.1233 96.1678 27.21C96.0545 27.3033 95.8778 27.35 95.6378 27.35H93.7978L95.7178 23.23L91.5678 13.74H93.7378C93.9311 13.74 94.0811 13.7867 94.1878 13.88C94.3011 13.9733 94.3845 14.08 94.4378 14.2L96.6178 19.52C96.6911 19.7 96.7511 19.88 96.7978 20.06C96.8511 20.24 96.9011 20.4233 96.9478 20.61C97.0078 20.4233 97.0678 20.24 97.1278 20.06C97.1878 19.8733 97.2545 19.69 97.3278 19.51L99.3878 14.2C99.4411 14.0667 99.5278 13.9567 99.6478 13.87C99.7745 13.7833 99.9145 13.74 100.068 13.74H102.048Z" fill="#0D0E0D"/>
</svg>
