<svg width="32" height="32" viewBox="0 0 32 32" fill="none" xmlns="http://www.w3.org/2000/svg">
<path fill-rule="evenodd" clip-rule="evenodd" d="M3.58576 6.58579C3.96083 6.21071 4.46954 6 4.99997 6H27C27.5304 6 28.0391 6.21071 28.4142 6.58579C28.7893 6.96086 29 7.46957 29 8V24C29 24.5304 28.7893 25.0391 28.4142 25.4142C28.0391 25.7893 27.5304 26 27 26H10.383L10.2532 26.0456L6.27502 29.3829C5.98365 29.6241 5.62986 29.7776 5.25474 29.8258C4.87962 29.874 4.49853 29.8148 4.15568 29.6551C3.81283 29.4955 3.52227 29.2419 3.31772 28.9238C3.11317 28.6057 3.003 28.2361 3 27.8579L2.99994 27.85L2.99997 8C2.99997 7.46957 3.21068 6.96086 3.58576 6.58579ZM27 8L4.99997 8V27.842L9.10727 24.3964C9.19949 24.319 9.30492 24.2589 9.41848 24.219L9.88098 24.0565C9.98749 24.0191 10.0996 24 10.2125 24H27V8Z" fill="black"/>
<path fill-rule="evenodd" clip-rule="evenodd" d="M11 14C11 13.4477 11.4477 13 12 13H20C20.5523 13 21 13.4477 21 14C21 14.5523 20.5523 15 20 15H12C11.4477 15 11 14.5523 11 14Z" fill="black"/>
<path fill-rule="evenodd" clip-rule="evenodd" d="M11 18C11 17.4477 11.4477 17 12 17H20C20.5523 17 21 17.4477 21 18C21 18.5523 20.5523 19 20 19H12C11.4477 19 11 18.5523 11 18Z" fill="black"/>
</svg>
