<svg width="896" height="96" viewBox="0 0 896 96" fill="none" xmlns="http://www.w3.org/2000/svg">
<rect width="896" height="96" rx="12" fill="white"/>
<path fill-rule="evenodd" clip-rule="evenodd" d="M37 38C37 37.4477 37.4477 37 38 37H46C46.5523 37 47 37.4477 47 38V46C47 46.5523 46.5523 47 46 47H38C37.4477 47 37 46.5523 37 46V38ZM39 39V45H45V39H39Z" fill="#0D0E0D"/>
<path fill-rule="evenodd" clip-rule="evenodd" d="M49 38C49 37.4477 49.4477 37 50 37H58C58.5523 37 59 37.4477 59 38V46C59 46.5523 58.5523 47 58 47H50C49.4477 47 49 46.5523 49 46V38ZM51 39V45H57V39H51Z" fill="#0D0E0D"/>
<path fill-rule="evenodd" clip-rule="evenodd" d="M37 50C37 49.4477 37.4477 49 38 49H46C46.5523 49 47 49.4477 47 50V58C47 58.5523 46.5523 59 46 59H38C37.4477 59 37 58.5523 37 58V50ZM39 51V57H45V51H39Z" fill="#0D0E0D"/>
<path fill-rule="evenodd" clip-rule="evenodd" d="M49 50C49 49.4477 49.4477 49 50 49H58C58.5523 49 59 49.4477 59 50V58C59 58.5523 58.5523 59 58 59H50C49.4477 59 49 58.5523 49 58V50ZM51 51V57H57V51H51Z" fill="#0D0E0D"/>
<path fill-rule="evenodd" clip-rule="evenodd" d="M96 46C94.3431 46 93 47.3431 93 49C93 50.6569 94.3431 52 96 52C97.6569 52 99 50.6569 99 49C99 47.3431 97.6569 46 96 46ZM91 49C91 46.2386 93.2386 44 96 44C98.7614 44 101 46.2386 101 49C101 51.7614 98.7614 54 96 54C93.2386 54 91 51.7614 91 49Z" fill="black"/>
<path fill-rule="evenodd" clip-rule="evenodd" d="M96 54C94.9909 54 93.9957 54.2349 93.0931 54.6862C92.1906 55.1375 91.4055 55.7927 90.8 56.6C90.4686 57.0418 89.8418 57.1314 89.4 56.8C88.9582 56.4686 88.8686 55.8418 89.2 55.4C89.9917 54.3443 91.0184 53.4875 92.1987 52.8974C93.379 52.3072 94.6804 52 96 52C97.3196 52 98.621 52.3072 99.8013 52.8974C100.982 53.4875 102.008 54.3443 102.8 55.4C103.131 55.8418 103.042 56.4686 102.6 56.8C102.158 57.1314 101.531 57.0418 101.2 56.6C100.595 55.7927 99.8094 55.1375 98.9069 54.6862C98.0043 54.2349 97.0091 54 96 54Z" fill="black"/>
<path fill-rule="evenodd" clip-rule="evenodd" d="M105 35C106.105 35 107 35.8954 107 37V59C107 60.1046 106.105 61 105 61H87C85.8954 61 85 60.1046 85 59V37C85 35.8954 85.8954 35 87 35H105ZM105 59V37H87V59H105Z" fill="black"/>
<path fill-rule="evenodd" clip-rule="evenodd" d="M91 40C91 39.4477 91.4477 39 92 39H100C100.552 39 101 39.4477 101 40C101 40.5523 100.552 41 100 41H92C91.4477 41 91 40.5523 91 40Z" fill="black"/>
<path fill-rule="evenodd" clip-rule="evenodd" d="M138 35C138 34.4477 138.448 34 139 34H151C151.552 34 152 34.4477 152 35C152 35.5523 151.552 36 151 36H147.326L148.962 41.7253C149.113 42.2563 148.806 42.8098 148.275 42.9615C147.744 43.1132 147.19 42.8058 147.038 42.2747L145.246 36H142V38.0001C143.657 38.0001 145 39.3432 145 41.0001V47H150C151.263 47 152.507 47.3995 153.453 48.1564C154.405 48.918 155 50.0049 155 51.2V59.2C155 59.7586 154.721 60.2351 154.332 60.5466C153.948 60.8534 153.467 61 153 61H135C134.533 61 134.052 60.8534 133.668 60.5466C133.279 60.2351 133 59.7586 133 59.2V51.2C133 50.0049 133.595 48.918 134.547 48.1564C135.241 47.6011 136.095 47.2382 137 47.0843V41.0001C137 39.3432 138.343 38.0001 140 38.0001V36H139C138.448 36 138 35.5523 138 35ZM144 49H138L137.999 49C137.14 49.0003 136.35 49.275 135.796 49.7181C135.248 50.1568 135 50.6977 135 51.2V59H153V51.2C153 50.6977 152.752 50.1568 152.204 49.7181C151.65 49.2748 150.859 49 150 49L144 49ZM139 41.0001V47H143V41.0001C143 40.4478 142.552 40.0001 142 40.0001H140C139.448 40.0001 139 40.4478 139 41.0001Z" fill="black"/>
<path fill-rule="evenodd" clip-rule="evenodd" d="M190.831 34.3607C191.174 34.1208 191.582 33.9921 192 33.9921C192.418 33.9921 192.826 34.1208 193.169 34.3607C193.507 34.5974 193.765 34.9309 193.909 35.3172L196.654 42.2309L196.663 42.2523C196.665 42.2591 196.67 42.265 196.675 42.2694C196.681 42.2737 196.688 42.2762 196.696 42.2767L196.702 42.277L204.077 42.752C205.991 42.8764 206.646 45.2729 205.252 46.4311C205.252 46.4313 205.252 46.4315 205.251 46.4318L199.603 51.1429L199.6 51.1456C199.587 51.1561 199.578 51.17 199.572 51.1857C199.567 51.2009 199.567 51.2173 199.57 51.2329C199.57 51.2333 199.57 51.2337 199.571 51.2341L201.394 58.4035C201.836 60.1464 199.954 61.716 198.317 60.6833L198.314 60.6817L192.014 56.6817C192.01 56.6791 192.005 56.6774 192 56.6774C191.995 56.6774 191.991 56.6788 191.987 56.6813L191.985 56.6823L186.124 60.3936C186.124 60.3938 186.124 60.394 186.123 60.3942C184.327 61.5361 182.253 59.8001 182.743 57.8783C182.743 57.8786 182.744 57.878 182.743 57.8783L184.429 51.2341C184.43 51.2338 184.43 51.2334 184.43 51.233C184.433 51.2173 184.433 51.201 184.428 51.1857C184.422 51.17 184.413 51.1561 184.4 51.1456L184.397 51.1429L178.749 46.4318C178.748 46.4315 178.748 46.4313 178.748 46.4311C177.355 45.2728 178.008 42.8764 179.923 42.7521L187.304 42.2766C187.312 42.2762 187.319 42.2737 187.325 42.2694C187.33 42.265 187.335 42.2591 187.337 42.2523L187.346 42.2309L190.091 35.3172C190.235 34.9309 190.493 34.5974 190.831 34.3607ZM193.087 54.9936C193.086 54.9935 193.087 54.9937 193.087 54.9936L199.384 58.9917C199.383 58.9915 199.384 58.9918 199.384 58.9917C199.395 58.9988 199.402 59.0016 199.404 59.0022C199.407 59.0016 199.416 58.9993 199.428 58.9903C199.443 58.9788 199.452 58.9645 199.457 58.9528C199.459 58.9475 199.46 58.9418 199.46 58.9347C199.461 58.9279 199.461 58.9153 199.456 58.8957C199.456 58.8957 199.456 58.8958 199.456 58.8957L197.629 51.7158C197.535 51.334 197.55 50.9333 197.673 50.5597C197.796 50.1869 198.021 49.8563 198.323 49.6058C198.324 49.6053 198.325 49.6048 198.325 49.6043L203.974 44.8932C203.985 44.8835 203.99 44.8765 203.992 44.8732C203.995 44.8695 203.997 44.8652 203.998 44.8593C204.002 44.8458 204.003 44.8225 203.995 44.7957C203.986 44.7689 203.974 44.7558 203.971 44.7528C203.969 44.7518 203.969 44.7516 203.968 44.7514C203.968 44.7514 203.963 44.7489 203.948 44.7479C203.948 44.7479 203.948 44.7479 203.948 44.7479L196.579 44.2733C196.578 44.2732 196.577 44.2731 196.576 44.2731C196.182 44.2495 195.803 44.112 195.486 43.8773C195.171 43.6445 194.931 43.3261 194.792 42.9602L192.046 36.044C192.042 36.035 192.039 36.0259 192.035 36.0168C192.033 36.0096 192.028 36.0033 192.022 35.9989C192.015 35.9945 192.008 35.9921 192 35.9921C191.992 35.9921 191.985 35.9945 191.979 35.9989C191.972 36.0033 191.967 36.0096 191.965 36.0168C191.961 36.0259 191.958 36.035 191.954 36.044L189.208 42.9602C189.069 43.3261 188.829 43.6445 188.514 43.8773C188.197 44.112 187.818 44.2495 187.424 44.2731L180.052 44.7479C180.052 44.7479 180.052 44.7479 180.052 44.7479C180.038 44.7488 180.032 44.7513 180.032 44.7514C180.031 44.7516 180.031 44.7517 180.03 44.7528C180.026 44.7558 180.014 44.7689 180.005 44.7957C179.997 44.8225 179.998 44.8458 180.002 44.8593C180.003 44.8652 180.005 44.8695 180.008 44.8732C180.01 44.8765 180.015 44.8835 180.026 44.8932L180.028 44.8945L185.675 49.6043C185.675 49.6048 185.676 49.6054 185.677 49.6059C185.979 49.8564 186.204 50.1869 186.327 50.5597C186.45 50.9333 186.465 51.334 186.371 51.7158L186.369 51.7209L184.681 58.3726C184.645 58.514 184.695 58.6235 184.786 58.6929C184.833 58.7285 184.88 58.7437 184.918 58.7463C184.949 58.7485 184.991 58.7441 185.051 58.7063L190.913 54.9936C190.914 54.9933 190.914 54.993 190.915 54.9926C191.239 54.7867 191.616 54.6774 192 54.6774C192.385 54.6774 192.762 54.7873 193.087 54.9936Z" fill="black"/>
<path fill-rule="evenodd" clip-rule="evenodd" d="M240 33.6443C239.656 33.6443 239.317 33.7345 239.018 33.9057L233.544 36.985C233.52 36.997 233.497 37.01 233.475 37.0239L228.022 40.0909L228.019 40.0929C227.752 40.2444 227.524 40.4544 227.352 40.7065C227.319 40.7474 227.29 40.7913 227.264 40.8381C227.247 40.8691 227.231 40.9007 227.218 40.9326C227.076 41.211 227.002 41.5189 227 41.8321V54.1625L227 54.1678C227.002 54.5217 227.097 54.8688 227.276 55.1742C227.455 55.4795 227.711 55.7323 228.019 55.907L228.022 55.909L239.018 62.0943C239.317 62.2655 239.656 62.3556 240 62.3556C240.344 62.3556 240.683 62.2655 240.982 62.0943L251.978 55.909L251.981 55.907C252.289 55.7323 252.545 55.4795 252.724 55.1742C252.903 54.8688 252.998 54.5217 253 54.1678L253 54.1625L253 41.8375L253 41.8321C252.998 41.519 252.924 41.2113 252.783 40.933C252.768 40.8985 252.751 40.8645 252.732 40.8311C252.707 40.7868 252.679 40.7453 252.648 40.7065C252.476 40.4544 252.248 40.2443 251.981 40.0929L240.982 33.9057C240.683 33.7345 240.344 33.6443 240 33.6443ZM229 54.1576V42.9506L239.108 48.5847L239.013 59.7967L229.006 54.1677C229.004 54.1666 229.003 54.1651 229.002 54.1634C229.001 54.1616 229 54.1597 229 54.1576ZM241.013 59.7819L250.994 54.1679C250.995 54.1668 250.997 54.1651 250.998 54.1634C250.999 54.1616 251 54.1597 251 54.1576V42.9651L247.125 45.1664V51.0625C247.125 51.6148 246.677 52.0625 246.125 52.0625C245.573 52.0625 245.125 51.6148 245.125 51.0625V46.3026L241.108 48.5848L241.013 59.7819ZM240.108 46.8526L244.097 44.5862L234.005 39.02L230.049 41.2456L240.108 46.8526ZM249.965 41.2531L246.137 43.4273L236.056 37.8668L240 35.6481L249.965 41.2531Z" fill="black"/>
<path fill-rule="evenodd" clip-rule="evenodd" d="M288 43C285.239 43 283 45.2386 283 48C283 50.7614 285.239 53 288 53C290.761 53 293 50.7614 293 48C293 45.2386 290.761 43 288 43ZM285 48C285 46.3431 286.343 45 288 45C289.657 45 291 46.3431 291 48C291 49.6569 289.657 51 288 51C286.343 51 285 49.6569 285 48Z" fill="black"/>
<path fill-rule="evenodd" clip-rule="evenodd" d="M275 39C273.895 39 273 39.8954 273 41V48.9996C273 48.9996 273 48.9996 273 48.9996V55C273 56.1046 273.895 57 275 57H281.992C281.997 57 282.002 57 282.007 57H301C302.105 57 303 56.1046 303 55V41C303 39.8954 302.105 39 301 39H275ZM282.376 55H293.624L301 48.5463V47.4538L293.624 41H282.376L275 47.4538V48.5462L282.376 55ZM275 51.2038V55H279.339L275 51.2038ZM275 44.7963L279.339 41H275V44.7963ZM301 51.2038V55H296.661L301 51.2038ZM301 41H296.661L301 44.7962V41Z" fill="black"/>
<path fill-rule="evenodd" clip-rule="evenodd" d="M334.651 35.8742C335.017 35.5381 335.496 35.3516 335.994 35.3516C336.491 35.3516 336.97 35.538 337.337 35.874L337.34 35.8767L347.347 44.9595L347.362 44.973C347.559 45.1596 347.718 45.3839 347.827 45.6326C347.937 45.8814 347.995 46.1495 348 46.4213L348 46.4375V58H350C350.552 58 351 58.4477 351 59C351 59.5523 350.552 60 350 60H322C321.448 60 321 59.5523 321 59C321 58.4477 321.448 58 322 58H324L324 46.4423C324 45.8846 324.23 45.349 324.651 44.9661C326.221 43.5379 333.046 37.3326 334.651 35.8742ZM334 58H338V52H334V58ZM340 58V52C340 51.4696 339.789 50.9609 339.414 50.5858C339.039 50.2107 338.53 50 338 50H334C333.47 50 332.961 50.2107 332.586 50.5858C332.211 50.9609 332 51.4696 332 52V58H326L326 46.4423C327.578 45.0078 334.387 38.816 335.994 37.356L345.991 46.4293C345.993 46.4322 345.995 46.4355 345.997 46.4391C345.999 46.4429 346 46.447 346 46.4511V58H340Z" fill="black"/>
<path fill-rule="evenodd" clip-rule="evenodd" d="M371.586 38.5858C371.961 38.2107 372.47 38 373 38H395C395.53 38 396.039 38.2107 396.414 38.5858C396.789 38.9609 397 39.4696 397 40V56C397 56.5304 396.789 57.0391 396.414 57.4142C396.039 57.7893 395.53 58 395 58H378.383L378.253 58.0456L374.275 61.3829C373.984 61.6241 373.63 61.7776 373.255 61.8258C372.88 61.874 372.499 61.8148 372.156 61.6551C371.813 61.4955 371.522 61.2419 371.318 60.9238C371.113 60.6057 371.003 60.2361 371 59.8579L371 59.85L371 40C371 39.4696 371.211 38.9609 371.586 38.5858ZM395 40L373 40V59.842L377.107 56.3964C377.199 56.319 377.305 56.2589 377.418 56.219L377.881 56.0565C377.987 56.0191 378.1 56 378.212 56H395V40Z" fill="black"/>
<path fill-rule="evenodd" clip-rule="evenodd" d="M379 46C379 45.4477 379.448 45 380 45H388C388.552 45 389 45.4477 389 46C389 46.5523 388.552 47 388 47H380C379.448 47 379 46.5523 379 46Z" fill="black"/>
<path fill-rule="evenodd" clip-rule="evenodd" d="M379 50C379 49.4477 379.448 49 380 49H388C388.552 49 389 49.4477 389 50C389 50.5523 388.552 51 388 51H380C379.448 51 379 50.5523 379 50Z" fill="black"/>
<path fill-rule="evenodd" clip-rule="evenodd" d="M439 35C439 34.4477 438.552 34 438 34C437.448 34 437 34.4477 437 35V36H427V35C427 34.4477 426.552 34 426 34C425.448 34 425 34.4477 425 35V36H422C420.895 36 420 36.8954 420 38V58C420 59.1046 420.895 60 422 60H442C443.105 60 444 59.1046 444 58V38C444 36.8954 443.105 36 442 36H439V35ZM442 42V38H439V39C439 39.5523 438.552 40 438 40C437.448 40 437 39.5523 437 39V38H427V39C427 39.5523 426.552 40 426 40C425.448 40 425 39.5523 425 39V38H422V42H442ZM422 44H442V58H422V44Z" fill="black"/>
<path fill-rule="evenodd" clip-rule="evenodd" d="M437.228 47.3142C437.607 47.7162 437.588 48.3491 437.186 48.7278L431.348 54.2278C430.962 54.5916 430.359 54.5906 429.974 54.2255L426.812 51.2255C426.411 50.8454 426.394 50.2125 426.774 49.8118C427.155 49.4111 427.788 49.3944 428.188 49.7745L430.665 52.1239L435.814 47.2722C436.216 46.8934 436.849 46.9123 437.228 47.3142Z" fill="black"/>
<path fill-rule="evenodd" clip-rule="evenodd" d="M487 35C487 34.4477 486.552 34 486 34C485.448 34 485 34.4477 485 35V36H475V35C475 34.4477 474.552 34 474 34C473.448 34 473 34.4477 473 35V36H470C468.895 36 468 36.8954 468 38V58C468 59.1046 468.895 60 470 60H490C491.105 60 492 59.1046 492 58V38C492 36.8954 491.105 36 490 36H487V35ZM490 42V38H487V39C487 39.5523 486.552 40 486 40C485.448 40 485 39.5523 485 39V38H475V39C475 39.5523 474.552 40 474 40C473.448 40 473 39.5523 473 39V38H470V42H490ZM470 44H490V58H470V44Z" fill="black"/>
<path fill-rule="evenodd" clip-rule="evenodd" d="M474.5 48C474.5 47.4477 474.948 47 475.5 47H479C479.384 47 479.735 47.2203 479.901 47.5668C480.068 47.9133 480.021 48.3245 479.781 48.6247L478.674 50.0082C478.998 50.2256 479.278 50.5048 479.496 50.8308C479.771 51.2411 479.94 51.7128 479.989 52.2041C480.037 52.6954 479.964 53.1912 479.775 53.6474C479.587 54.1035 479.288 54.5061 478.906 54.8192C478.525 55.1324 478.072 55.3465 477.587 55.4426C477.103 55.5387 476.602 55.5138 476.13 55.3701C475.658 55.2264 475.228 54.9683 474.88 54.6188C474.489 54.2278 474.49 53.5946 474.881 53.2045C475.272 52.8145 475.905 52.8153 476.295 53.2062C476.412 53.3228 476.555 53.4088 476.712 53.4567C476.87 53.5046 477.037 53.5129 477.198 53.4809C477.359 53.4488 477.51 53.3775 477.638 53.2731C477.765 53.1687 477.864 53.0345 477.927 52.8824C477.99 52.7304 478.015 52.5651 477.999 52.4014C477.982 52.2376 477.926 52.0804 477.834 51.9436C477.743 51.8069 477.619 51.6948 477.474 51.6174C477.328 51.5401 477.166 51.4997 477.002 51.5C476.617 51.5007 476.266 51.2806 476.099 50.934C475.932 50.5874 475.979 50.1757 476.219 49.8753L476.919 49H475.5C474.948 49 474.5 48.5523 474.5 48Z" fill="black"/>
<path fill-rule="evenodd" clip-rule="evenodd" d="M484.447 47.1056C484.786 47.275 485 47.6212 485 48V54.5C485 55.0523 484.552 55.5 484 55.5C483.448 55.5 483 55.0523 483 54.5V50L482.6 50.3C482.158 50.6314 481.531 50.5418 481.2 50.1C480.869 49.6582 480.958 49.0314 481.4 48.7L483.4 47.2C483.703 46.9727 484.108 46.9362 484.447 47.1056Z" fill="black"/>
</svg>
