<svg width="16" height="18" viewBox="0 0 16 18" fill="none" xmlns="http://www.w3.org/2000/svg">
<path fill-rule="evenodd" clip-rule="evenodd" d="M8.03493 2.12499C5.31476 2.11023 3.01183 4.42978 3.01562 7.12412L3.01562 7.125L3.01562 7.75C3.01562 10.6348 2.41076 12.3721 1.83032 13.375H14.1697C13.5892 12.3721 12.9844 10.6348 12.9844 7.75V7.19531C12.9844 4.42593 10.7738 2.14607 8.03493 2.12499ZM1.76562 7.12544C1.76111 3.74169 4.62412 0.855988 8.04254 0.87501L8.04379 0.875017C11.4921 0.901141 14.2344 3.76177 14.2344 7.19531V7.75C14.2344 10.4583 14.8011 11.9709 15.2518 12.7494L15.2522 12.75C15.3617 12.9397 15.4195 13.1548 15.4197 13.3739C15.4199 13.5929 15.3625 13.8082 15.2533 13.9981C15.1441 14.188 14.9869 14.3459 14.7975 14.4559C14.6081 14.5659 14.3931 14.6242 14.1741 14.625L14.1719 14.625H1.82812L1.82592 14.625C1.60688 14.6242 1.39188 14.5659 1.20246 14.4559C1.01305 14.3459 0.855878 14.188 0.746689 13.9981C0.6375 13.8082 0.580129 13.5929 0.580323 13.3739C0.580517 13.1548 0.638269 12.9397 0.747795 12.75L0.748167 12.7494C1.19887 11.9709 1.76562 10.4583 1.76562 7.75V7.12544Z" fill="#6E6E6E"/>
<path fill-rule="evenodd" clip-rule="evenodd" d="M5.5 13.375C5.84517 13.375 6.125 13.6548 6.125 14V14.625C6.125 15.1223 6.32254 15.5992 6.67417 15.9508C7.0258 16.3025 7.50272 16.5 8 16.5C8.49728 16.5 8.97419 16.3025 9.32582 15.9508C9.67745 15.5992 9.875 15.1223 9.875 14.625V14C9.875 13.6548 10.1548 13.375 10.5 13.375C10.8452 13.375 11.125 13.6548 11.125 14V14.625C11.125 15.4538 10.7958 16.2487 10.2097 16.8347C9.62365 17.4208 8.8288 17.75 8 17.75C7.17119 17.75 6.37634 17.4208 5.79029 16.8347C5.20424 16.2487 4.875 15.4538 4.875 14.625V14C4.875 13.6548 5.15482 13.375 5.5 13.375Z" fill="#6E6E6E"/>
</svg>
