<svg width="125" height="93" viewBox="0 0 125 93" fill="none" xmlns="http://www.w3.org/2000/svg">
<path d="M0.852912 27.4226L0.861013 27.4959L6.13173 85.5401H91.5803L86.2725 27.1072C86.1943 26.2519 85.5113 25.5994 84.6926 25.5994H2.43282C1.4989 25.5994 0.766282 26.4462 0.852912 27.4226Z" fill="#0D0E0D"/>
<path d="M6.17604 92.4162H121.023C122.831 92.4162 124.297 90.8771 124.297 88.978C124.297 87.0793 122.831 85.5398 121.023 85.5398H6.17604C4.36772 85.5398 2.90155 87.0789 2.90155 88.978C2.90186 90.8771 4.36772 92.4162 6.17604 92.4162Z" fill="#CAC9CF"/>
<path d="M43.7912 92.4162H121.023C122.831 92.4162 124.297 90.8771 124.297 88.978C124.297 87.0793 122.831 85.5398 121.023 85.5398H43.7912C41.9829 85.5398 40.517 87.0789 40.517 88.978C40.5167 90.8771 41.9826 92.4162 43.7912 92.4162Z" fill="#E5E4EA"/>
<path d="M76.8567 88.9782H87.9569C89.7652 88.9782 91.2314 87.4391 91.2314 85.54H73.5825C73.5825 87.4391 75.0484 88.9782 76.8567 88.9782Z" fill="#848E89"/>
<path d="M3.97811 27.4225L3.98621 27.4958L9.25693 85.54H94.7055L89.3977 27.1071C89.3195 26.2518 88.6364 25.5994 87.8178 25.5994H5.55802C4.6241 25.5994 3.89179 26.4462 3.97811 27.4225Z" fill="#373737"/>
<path opacity="0.1" d="M13.815 81.2155H89.1909C89.7303 81.2155 90.1522 80.728 90.1011 80.1642L85.616 30.7927C85.5711 30.3 85.1772 29.9237 84.7057 29.9237H9.3299C8.79049 29.9237 8.36856 30.4112 8.41967 30.975L12.9048 80.3465C12.9497 80.8395 13.3439 81.2155 13.815 81.2155Z" fill="white"/>
<path d="M9.3299 29.924C8.79049 29.924 8.36856 30.4115 8.41967 30.9753L12.9048 80.3468C12.9497 80.8395 13.3435 81.2158 13.815 81.2158H89.1909C89.7303 81.2158 90.1522 80.7283 90.1011 80.1645L86.3424 38.7892H34.6866C32.8091 38.7892 31.1426 37.5275 30.5489 35.6572L29.5013 32.3554C29.0407 30.9033 27.7466 29.924 26.2891 29.924H9.3299Z" fill="#0D0E0D"/>
<path d="M30.0211 60.2508H16.9615C15.6333 60.2508 14.5567 59.1203 14.5567 57.7258C14.5567 56.3313 15.6333 55.2008 16.9615 55.2008H30.0211C31.3492 55.2008 32.4258 56.3313 32.4258 57.7258C32.4258 59.1203 31.3492 60.2508 30.0211 60.2508Z" fill="#E7F68E"/>
<path d="M19.8068 57.3574C19.9259 57.4012 20.0192 57.47 20.0867 57.5638C20.1543 57.6556 20.188 57.7671 20.188 57.8984C20.188 58.0903 20.1145 58.2383 19.9676 58.3425C19.8207 58.4468 19.6082 58.4989 19.3302 58.4989H18.2044V56.3098H19.2707C19.5367 56.3098 19.7393 56.3619 19.8783 56.4661C20.0173 56.5683 20.0867 56.7069 20.0867 56.8821C20.0867 56.9863 20.0619 57.0801 20.0123 57.1635C19.9646 57.2448 19.8961 57.3095 19.8068 57.3574ZM18.7882 56.757V57.1792H19.1932C19.3918 57.1792 19.4911 57.1083 19.4911 56.9665C19.4911 56.8268 19.3918 56.757 19.1932 56.757H18.7882ZM19.2826 58.0517C19.4891 58.0517 19.5923 57.9777 19.5923 57.8296C19.5923 57.6816 19.4891 57.6076 19.2826 57.6076H18.7882V58.0517H19.2826Z" fill="#0D0E0D"/>
<path d="M21.5448 58.5427C21.3244 58.5427 21.1259 58.4937 20.9492 58.3957C20.7744 58.2977 20.6364 58.1622 20.5352 57.9891C20.4359 57.8161 20.3862 57.6212 20.3862 57.4043C20.3862 57.1875 20.4359 56.9926 20.5352 56.8195C20.6364 56.6465 20.7744 56.511 20.9492 56.413C21.1259 56.315 21.3244 56.266 21.5448 56.266C21.7652 56.266 21.9628 56.315 22.1375 56.413C22.3142 56.511 22.4522 56.6465 22.5515 56.8195C22.6528 56.9926 22.7034 57.1875 22.7034 57.4043C22.7034 57.6212 22.6528 57.8161 22.5515 57.9891C22.4522 58.1622 22.3142 58.2977 22.1375 58.3957C21.9628 58.4937 21.7652 58.5427 21.5448 58.5427ZM21.5448 58.0298C21.6501 58.0298 21.7454 58.0037 21.8308 57.9516C21.9161 57.8995 21.9836 57.8265 22.0333 57.7327C22.0829 57.6368 22.1077 57.5273 22.1077 57.4043C22.1077 57.2813 22.0829 57.1729 22.0333 57.0791C21.9836 56.9832 21.9161 56.9092 21.8308 56.8571C21.7454 56.8049 21.6501 56.7789 21.5448 56.7789C21.4396 56.7789 21.3443 56.8049 21.2589 56.8571C21.1735 56.9092 21.106 56.9832 21.0564 57.0791C21.0067 57.1729 20.9819 57.2813 20.9819 57.4043C20.9819 57.5273 21.0067 57.6368 21.0564 57.7327C21.106 57.8265 21.1735 57.8995 21.2589 57.9516C21.3443 58.0037 21.4396 58.0298 21.5448 58.0298Z" fill="#0D0E0D"/>
<path d="M24.0637 58.5427C23.8433 58.5427 23.6447 58.4937 23.468 58.3957C23.2933 58.2977 23.1553 58.1622 23.054 57.9891C22.9547 57.8161 22.9051 57.6212 22.9051 57.4043C22.9051 57.1875 22.9547 56.9926 23.054 56.8195C23.1553 56.6465 23.2933 56.511 23.468 56.413C23.6447 56.315 23.8433 56.266 24.0637 56.266C24.2841 56.266 24.4816 56.315 24.6564 56.413C24.8331 56.511 24.9711 56.6465 25.0704 56.8195C25.1716 56.9926 25.2223 57.1875 25.2223 57.4043C25.2223 57.6212 25.1716 57.8161 25.0704 57.9891C24.9711 58.1622 24.8331 58.2977 24.6564 58.3957C24.4816 58.4937 24.2841 58.5427 24.0637 58.5427ZM24.0637 58.0298C24.1689 58.0298 24.2642 58.0037 24.3496 57.9516C24.435 57.8995 24.5025 57.8265 24.5521 57.7327C24.6018 57.6368 24.6266 57.5273 24.6266 57.4043C24.6266 57.2813 24.6018 57.1729 24.5521 57.0791C24.5025 56.9832 24.435 56.9092 24.3496 56.8571C24.2642 56.8049 24.1689 56.7789 24.0637 56.7789C23.9584 56.7789 23.8631 56.8049 23.7777 56.8571C23.6924 56.9092 23.6248 56.9832 23.5752 57.0791C23.5256 57.1729 23.5007 57.2813 23.5007 57.4043C23.5007 57.5273 23.5256 57.6368 23.5752 57.7327C23.6248 57.8265 23.6924 57.8995 23.7777 57.9516C23.8631 58.0037 23.9584 58.0298 24.0637 58.0298Z" fill="#0D0E0D"/>
<path d="M26.3353 57.7046L26.1149 57.9516V58.4989H25.5311V56.3098H26.1149V57.2198L26.922 56.3098H27.5713L26.7195 57.2792L27.616 58.4989H26.931L26.3353 57.7046Z" fill="#0D0E0D"/>
<path d="M30.552 46.1396H25.6643V48.1428H30.552V46.1396Z" fill="#D5F6E5"/>
<path d="M24.6914 46.1396H15.1541V48.1428H24.6914V46.1396Z" fill="#D5F6E5"/>
<path d="M18.0889 49.728H15.1541V51.7311H18.0889V49.728Z" fill="#D5F6E5"/>
<path d="M26.8738 49.728H19.0459V51.7311H26.8738V49.728Z" fill="#D5F6E5"/>
<path d="M22.219 35.7151H27.4729L27.2763 33.5621H22.0221L22.219 35.7151Z" fill="#A1AFA8"/>
<path d="M12.0339 35.7151H21.1736L20.9767 33.5621H11.8369L12.0339 35.7151Z" fill="#A1AFA8"/>
<path d="M9.75252 88.9783C9.75252 88.3697 9.2826 87.876 8.70268 87.876C8.12307 87.876 7.65283 88.3694 7.65283 88.9783C7.65283 89.5869 8.12275 90.0806 8.70268 90.0806C9.28229 90.0806 9.75252 89.5869 9.75252 88.9783Z" fill="#373737"/>
<path d="M13.581 88.9783C13.581 88.3697 13.1111 87.876 12.5312 87.876C11.9516 87.876 11.4813 88.3694 11.4813 88.9783C11.4813 89.5869 11.9512 90.0806 12.5312 90.0806C13.1108 90.0806 13.581 89.5869 13.581 88.9783Z" fill="#373737"/>
<path d="M63.9719 5.64648H37.9112V81.2158H63.9719V5.64648Z" fill="#E7F68E"/>
<path d="M63.9718 11.293H42.8755V81.2158H63.9718V11.293Z" fill="#BCD9CA"/>
<path d="M63.9718 17.3737H42.8755V18.8938H63.9718V17.3737Z" fill="#D5F6E5"/>
<path d="M63.9718 26.7119H42.8755V28.2321H63.9718V26.7119Z" fill="#D5F6E5"/>
<path d="M63.9718 36.0502H42.8755V37.5703H63.9718V36.0502Z" fill="#D5F6E5"/>
<path d="M63.9718 45.3884H42.8755V46.9086H63.9718V45.3884Z" fill="#D5F6E5"/>
<path d="M63.9718 54.7264H42.8755V56.2466H63.9718V54.7264Z" fill="#D5F6E5"/>
<path d="M63.9718 64.0647H42.8755V65.5849H63.9718V64.0647Z" fill="#D5F6E5"/>
<path d="M63.9718 73.403H42.8755V74.9231H63.9718V73.403Z" fill="#D5F6E5"/>
<path opacity="0.2" d="M63.9718 11.293H45.0815H42.8755V13.6092V81.2155H45.0815V13.6092H63.9718V11.293Z" fill="#BCD9CA"/>
<path d="M63.9719 0H37.9112V2.38888H63.9719V0Z" fill="#E7F68E"/>
<path d="M63.0414 2.38892H38.842V5.64652H63.0414V2.38892Z" fill="#BCD9CA"/>
<path opacity="0.1" d="M63.9718 31.3084L42.8755 42.2755V11.293H63.9718V31.3084Z" fill="white"/>
<path opacity="0.1" d="M63.9718 56.2649L42.8755 67.2319V61.3682L63.9718 50.4011V56.2649Z" fill="white"/>
<path opacity="0.1" d="M63.9718 71.2496L42.8755 78.305V70.5978L63.9718 59.6311V71.2496Z" fill="white"/>
<path d="M54.044 11.293H52.8031V81.2158H54.044V11.293Z" fill="#D5F6E5"/>
<path d="M80.8039 33.0828H63.9718V81.2158H80.8039V33.0828Z" fill="#E7F68E"/>
<path d="M80.8039 37.5704H70.1836V39.5247H80.8039V37.5704Z" fill="#BCD9CA"/>
<path d="M80.8038 42.2755H70.1835V44.2299H80.8038V42.2755Z" fill="#BCD9CA"/>
<path d="M80.8038 46.981H70.1835V48.9353H80.8038V46.981Z" fill="#BCD9CA"/>
<path d="M80.8038 51.686H70.1835V53.6404H80.8038V51.686Z" fill="#BCD9CA"/>
<path d="M80.8038 56.3915H70.1835V58.3458H80.8038V56.3915Z" fill="#BCD9CA"/>
<path d="M80.8038 61.097H70.1835V63.0514H80.8038V61.097Z" fill="#BCD9CA"/>
<path d="M80.8038 65.8021H70.1835V67.7565H80.8038V65.8021Z" fill="#BCD9CA"/>
<path d="M80.8038 70.5076H70.1835V72.4619H80.8038V70.5076Z" fill="#BCD9CA"/>
<path d="M80.8038 75.2126H70.1835V77.167H80.8038V75.2126Z" fill="#BCD9CA"/>
<path opacity="0.2" d="M67.0743 33.0828H63.9718V81.2158H67.0743V33.0828Z" fill="#BCD9CA"/>
<path d="M65.7674 9.78784H63.9718V10.4239H65.7674V9.78784Z" fill="#6E6E6E"/>
<path d="M65.7674 16.7336H63.9718V17.3697H65.7674V16.7336Z" fill="#6E6E6E"/>
<path d="M65.7674 23.6794H63.9718V24.3155H65.7674V23.6794Z" fill="#6E6E6E"/>
<path d="M66.2417 26.7118H72.3859V7.39132H66.2417V26.7118Z" fill="#FD4242"/>
<path d="M65.2928 26.7118H66.2419V7.39132H65.2928V26.7118Z" fill="#6E6E6E"/>
<path d="M70.1513 8.84064V10.8771H69.6027V10.0829H68.8547V10.8771H68.3061V8.84064H68.8547V9.60575H69.6027V8.84064H70.1513Z" fill="white"/>
<path d="M69.2287 14.4087C69.0236 14.4087 68.8389 14.3631 68.6745 14.2719C68.512 14.1808 68.3836 14.0547 68.2894 13.8937C68.1971 13.7328 68.1509 13.5514 68.1509 13.3497C68.1509 13.148 68.1971 12.9667 68.2894 12.8057C68.3836 12.6447 68.512 12.5187 68.6745 12.4275C68.8389 12.3364 69.0236 12.2908 69.2287 12.2908C69.4337 12.2908 69.6175 12.3364 69.78 12.4275C69.9444 12.5187 70.0728 12.6447 70.1651 12.8057C70.2593 12.9667 70.3064 13.148 70.3064 13.3497C70.3064 13.5514 70.2593 13.7328 70.1651 13.8937C70.0728 14.0547 69.9444 14.1808 69.78 14.2719C69.6175 14.3631 69.4337 14.4087 69.2287 14.4087ZM69.2287 13.9316C69.3266 13.9316 69.4152 13.9073 69.4946 13.8588C69.5741 13.8104 69.6369 13.7425 69.683 13.6552C69.7292 13.566 69.7523 13.4642 69.7523 13.3497C69.7523 13.2353 69.7292 13.1345 69.683 13.0472C69.6369 12.958 69.5741 12.8891 69.4946 12.8406C69.4152 12.7921 69.3266 12.7679 69.2287 12.7679C69.1308 12.7679 69.0421 12.7921 68.9627 12.8406C68.8832 12.8891 68.8204 12.958 68.7743 13.0472C68.7281 13.1345 68.705 13.2353 68.705 13.3497C68.705 13.4642 68.7281 13.566 68.7743 13.6552C68.8204 13.7425 68.8832 13.8104 68.9627 13.8588C69.0421 13.9073 69.1308 13.9316 69.2287 13.9316Z" fill="white"/>
<path d="M68.9557 16.2795H68.3601V15.8227H70.0973V16.2795H69.5043V17.8592H68.9557V16.2795Z" fill="white"/>
<path d="M70.0489 20.905V21.3501H68.4918V19.3136H70.0129V19.7587H69.0349V20.102H69.8965V20.5326H69.0349V20.905H70.0489Z" fill="white"/>
<path d="M68.5775 22.8045H69.1261V24.3842H70.0515V24.8409H68.5775V22.8045Z" fill="white"/>
<path d="M36.2409 65.8044L34.5488 68.6494C33.8963 69.7462 32.3117 69.4978 31.9929 68.2486L31.1269 64.8545L30.0534 60.6484C29.7726 59.5483 30.7311 58.5419 31.7788 58.8367L35.7847 59.9639L39.0171 60.8732C40.2068 61.2079 40.4434 62.8717 39.3988 63.5569L36.6896 65.3335C36.5076 65.4523 36.3543 65.6136 36.2409 65.8044Z" fill="#FD4242"/>
<path opacity="0.1" d="M31.6199 59.4594C31.2198 59.3468 30.95 59.5729 30.8524 59.6753L36.0053 65.0859C36.1138 64.972 36.2344 64.8712 36.364 64.7862L39.0735 63.0092C39.3487 62.8276 39.4864 62.517 39.4384 62.1781C39.3905 61.8394 39.1733 61.5842 38.8582 61.4955L31.6199 59.4594Z" fill="white"/>
<path d="M88.3052 15.3329C88.495 14.278 87.0694 13.4227 85.1205 13.4227C83.7138 13.4227 82.4197 13.8684 81.7366 14.513C81.6029 14.0974 81.1866 13.8069 80.6407 13.8069C79.9012 13.8069 79.206 14.3389 79.0879 14.9949C79.0667 15.1124 79.0664 15.2256 79.0829 15.3329H88.3052Z" fill="#FEFEFE"/>
<path d="M99.0885 34.6387C99.3979 32.9199 97.0748 31.5267 93.9001 31.5267C91.6084 31.5267 89.5 32.2527 88.3872 33.3027C88.1694 32.6254 87.491 32.1526 86.6019 32.1526C85.3972 32.1526 84.2648 33.019 84.0722 34.088C84.0376 34.2794 84.037 34.4639 84.0641 34.6387H99.0885Z" fill="#FEFEFE"/>
<path d="M30.0649 20.4084C30.4199 17.0775 26.8758 14.3774 22.1495 14.3774C18.7382 14.3774 15.6439 15.7844 14.0521 17.8193C13.6863 16.5069 12.6473 15.5907 11.3236 15.5907C9.53021 15.5907 7.89764 17.2699 7.67701 19.3414C7.63744 19.7124 7.64772 20.0701 7.69851 20.4084H30.0649Z" fill="#FEFEFE"/>
<path d="M83.0538 62.0765H82.4667V81.2314H83.0538V62.0765Z" fill="#773421"/>
<path d="M85.5931 62.8772C85.5931 58.8203 84.3249 55.5316 82.7602 55.5316C81.1956 55.5316 79.9273 58.8203 79.9273 62.8772C79.9273 66.9342 81.1956 67.6969 82.7602 67.6969C84.3249 67.6966 85.5931 66.9342 85.5931 62.8772Z" fill="#64942F"/>
<path d="M88.7294 59.7263H88.0703V81.2315H88.7294V59.7263Z" fill="#773421"/>
<path d="M91.5803 60.6251C91.5803 56.0705 90.1562 52.3781 88.3999 52.3781C86.6433 52.3781 85.2192 56.0705 85.2192 60.6251C85.2192 65.1797 86.6433 66.036 88.3999 66.036C90.1565 66.036 91.5803 65.1797 91.5803 60.6251Z" fill="#527A28"/>
<path d="M21.3979 71.3451H20.914V81.2157H21.3979V71.3451Z" fill="#773421"/>
<path d="M23.4914 72.0048C23.4914 68.6601 22.4456 65.949 21.1558 65.949C19.866 65.949 18.8203 68.6601 18.8203 72.0048C18.8203 75.3494 19.8657 75.978 21.1558 75.978C22.4456 75.9783 23.4914 75.3494 23.4914 72.0048Z" fill="#64942F"/>
<path d="M28.1582 72.5137H27.7316V81.2155H28.1582V72.5137Z" fill="#773421"/>
<path d="M30.0038 73.0954C30.0038 70.147 29.0821 67.7565 27.945 67.7565C26.8079 67.7565 25.8861 70.1467 25.8861 73.0954C25.8861 76.0441 26.8079 76.5981 27.945 76.5981C29.0821 76.5984 30.0038 76.0441 30.0038 73.0954Z" fill="#527A28"/>
</svg>
