<svg width="32" height="32" viewBox="0 0 32 32" fill="none" xmlns="http://www.w3.org/2000/svg">
<path fill-rule="evenodd" clip-rule="evenodd" d="M14.8312 2.36072C15.1737 2.12081 15.5818 1.99213 16 1.99213C16.4182 1.99213 16.8263 2.12081 17.1688 2.36072C17.5068 2.59737 17.7648 2.93093 17.9089 3.31718L20.6544 10.2309L20.6626 10.2523C20.6652 10.2591 20.6696 10.265 20.6755 10.2694C20.6813 10.2737 20.6883 10.2762 20.6956 10.2767L20.7018 10.277L28.0768 10.752C29.9913 10.8764 30.6455 13.2729 29.2522 14.4311C29.2519 14.4313 29.2517 14.4315 29.2514 14.4318L23.603 19.1429L23.5998 19.1456C23.5871 19.1561 23.5776 19.17 23.5724 19.1857C23.5674 19.2009 23.5667 19.2173 23.5703 19.2329C23.5704 19.2333 23.5705 19.2337 23.5706 19.2341L25.3942 26.4035C25.8357 28.1464 23.9537 29.716 22.3165 28.6833L22.314 28.6817L16.014 24.6817C16.01 24.6791 16.0048 24.6774 16 24.6774C15.9953 24.6774 15.9906 24.6788 15.9866 24.6813L15.985 24.6823L10.1244 28.3936C10.1241 28.3938 10.1238 28.394 10.1235 28.3942C8.32749 29.5361 6.25313 27.8001 6.74342 25.8783C6.74334 25.8786 6.7435 25.878 6.74342 25.8783L8.42946 19.2341C8.42955 19.2338 8.42964 19.2334 8.42973 19.233C8.4334 19.2173 8.43267 19.201 8.42764 19.1857C8.42248 19.17 8.413 19.1561 8.40029 19.1456L8.39701 19.1429L2.74863 14.4318C2.74836 14.4315 2.74809 14.4313 2.74782 14.4311C1.35453 13.2728 2.00828 10.8764 3.92273 10.7521L11.3044 10.2766C11.3117 10.2762 11.3187 10.2737 11.3246 10.2694C11.3304 10.265 11.3349 10.2591 11.3374 10.2523L11.3456 10.2309L14.0911 3.31718C14.2353 2.93094 14.4933 2.59737 14.8312 2.36072ZM17.0866 22.9936C17.0864 22.9935 17.0868 22.9937 17.0866 22.9936L23.3835 26.9917C23.3833 26.9915 23.3838 26.9918 23.3835 26.9917C23.3949 26.9988 23.4024 27.0016 23.4044 27.0022C23.4071 27.0016 23.4157 26.9993 23.4276 26.9903C23.4427 26.9788 23.4524 26.9645 23.4567 26.9528C23.4587 26.9475 23.4601 26.9418 23.4605 26.9347C23.4608 26.9279 23.4606 26.9153 23.4557 26.8957C23.4557 26.8957 23.4557 26.8958 23.4557 26.8957L21.6294 19.7158C21.5347 19.334 21.5498 18.9333 21.6729 18.5597C21.7958 18.1869 22.0213 17.8563 22.3235 17.6058C22.3241 17.6053 22.3247 17.6048 22.3253 17.6043L27.9736 12.8932C27.9853 12.8835 27.9903 12.8765 27.9924 12.8732C27.9947 12.8695 27.9967 12.8652 27.9983 12.8593C28.0018 12.8458 28.0031 12.8225 27.9947 12.7957C27.9864 12.7689 27.9741 12.7558 27.9705 12.7528C27.9693 12.7518 27.9689 12.7516 27.9685 12.7514C27.9684 12.7514 27.9626 12.7489 27.9481 12.7479C27.948 12.7479 27.9482 12.7479 27.9481 12.7479L20.5794 12.2733C20.5783 12.2732 20.5771 12.2731 20.5759 12.2731C20.182 12.2495 19.8034 12.112 19.4861 11.8773C19.1714 11.6445 18.9306 11.3261 18.7921 10.9602L16.0456 4.04405C16.042 4.03502 16.0386 4.02594 16.0353 4.01681C16.0326 4.00958 16.0278 4.00333 16.0215 3.99891C16.0152 3.99449 16.0077 3.99213 16 3.99213C15.9923 3.99213 15.9848 3.99449 15.9785 3.99891C15.9722 4.00333 15.9674 4.00958 15.9648 4.01681C15.9615 4.02594 15.958 4.03502 15.9544 4.04405L13.2079 10.9602C13.0695 11.3261 12.8286 11.6445 12.514 11.8773C12.1967 12.112 11.8181 12.2495 11.4242 12.2731L4.05233 12.7479C4.05222 12.7479 4.05243 12.7479 4.05233 12.7479C4.03777 12.7488 4.03175 12.7513 4.03164 12.7514C4.03119 12.7516 4.03081 12.7517 4.02953 12.7528C4.0259 12.7558 4.0136 12.7689 4.00531 12.7957C3.997 12.8225 3.99824 12.8458 4.00179 12.8593C4.00336 12.8652 4.00535 12.8695 4.00767 12.8732C4.00978 12.8765 4.01473 12.8835 4.02643 12.8932L4.02805 12.8945L9.67476 17.6043C9.67542 17.6048 9.67607 17.6054 9.67672 17.6059C9.97887 17.8564 10.2043 18.1869 10.3272 18.5597C10.4503 18.9333 10.4653 19.334 10.3706 19.7158L10.3693 19.7209L8.68139 26.3726C8.64526 26.514 8.6951 26.6235 8.78644 26.6929C8.83319 26.7285 8.88041 26.7437 8.91773 26.7463C8.94859 26.7485 8.99132 26.7441 9.05065 26.7063L14.9134 22.9936C14.914 22.9933 14.9145 22.993 14.915 22.9926C15.2394 22.7867 15.6158 22.6774 16 22.6774C16.3847 22.6774 16.762 22.7873 17.0866 22.9936Z" fill="black"/>
</svg>
