
<svg width="16" height="20" viewBox="0 0 16 20" fill="none" xmlns="http://www.w3.org/2000/svg">
<path fill-rule="evenodd" clip-rule="evenodd" d="M7.25 4.5C4.62665 4.5 2.5 6.62665 2.5 9.25C2.5 11.8734 4.62665 14 7.25 14C9.87335 14 12 11.8734 12 9.25C12 6.62665 9.87335 4.5 7.25 4.5ZM1.5 9.25C1.5 6.07436 4.07436 3.5 7.25 3.5C10.4256 3.5 13 6.07436 13 9.25C13 12.4256 10.4256 15 7.25 15C4.07436 15 1.5 12.4256 1.5 9.25Z" fill="#6E6E6E"/>
<path fill-rule="evenodd" clip-rule="evenodd" d="M10.6089 12.6089C10.8042 12.4137 11.1208 12.4137 11.3161 12.6089L14.3536 15.6464C14.5488 15.8417 14.5488 16.1583 14.3536 16.3536C14.1583 16.5488 13.8417 16.5488 13.6464 16.3536L10.6089 13.3161C10.4137 13.1208 10.4137 12.8042 10.6089 12.6089Z" fill="#6E6E6E"/>
</svg>
