<svg width="36" height="36" viewBox="0 0 36 36" fill="none" xmlns="http://www.w3.org/2000/svg">
<rect width="36" height="36" rx="8" fill="white"/>
<path fill-rule="evenodd" clip-rule="evenodd" d="M18 14.875C16.2741 14.875 14.875 16.2741 14.875 18C14.875 19.7259 16.2741 21.125 18 21.125C19.7259 21.125 21.125 19.7259 21.125 18C21.125 16.2741 19.7259 14.875 18 14.875ZM13.625 18C13.625 15.5838 15.5838 13.625 18 13.625C20.4163 13.625 22.375 15.5838 22.375 18C22.375 20.4162 20.4163 22.375 18 22.375C15.5838 22.375 13.625 20.4162 13.625 18Z" fill="#6E6E6E"/>
<path fill-rule="evenodd" clip-rule="evenodd" d="M15.3236 9.66304C15.4953 9.60762 15.6825 9.62908 15.8372 9.72188L17.6642 10.818C17.8881 10.808 18.1124 10.808 18.3363 10.8181L20.1556 9.72932C20.309 9.63752 20.4944 9.61581 20.6649 9.66966C21.8588 10.0469 22.9565 10.679 23.8819 11.5224C24.0146 11.6433 24.0889 11.8154 24.0859 11.9949L24.0501 14.1185C24.1735 14.308 24.2867 14.5039 24.3893 14.7053L26.2412 15.735C26.3972 15.8217 26.5086 15.9709 26.5475 16.1451C26.82 17.3654 26.8229 18.6306 26.5559 19.8522C26.5176 20.0278 26.4054 20.1784 26.2481 20.2655L24.389 21.2952C24.2865 21.4965 24.1734 21.6922 24.0501 21.8815L24.0859 24.0051C24.0889 24.1846 24.0146 24.3567 23.8819 24.4776C22.9584 25.3191 21.8654 25.9531 20.6764 26.337C20.5047 26.3924 20.3175 26.3709 20.1628 26.2781L18.3359 25.182C18.112 25.192 17.8877 25.192 17.6637 25.1819L15.8444 26.2707C15.691 26.3625 15.5056 26.3842 15.3352 26.3303C14.1412 25.9531 13.0436 25.321 12.1181 24.4776C11.9854 24.3567 11.9111 24.1845 11.9142 24.0051L11.95 21.8863C11.8273 21.6948 11.7142 21.4975 11.6111 21.2949L9.75882 20.265C9.60287 20.1783 9.49142 20.0291 9.45254 19.8549C9.18007 18.6346 9.17719 17.3694 9.44412 16.1478C9.48249 15.9722 9.59463 15.8216 9.7519 15.7345L11.6111 14.7048C11.7135 14.5035 11.8267 14.3078 11.9499 14.1185L11.9142 11.9949C11.9112 11.8154 11.9854 11.6433 12.1181 11.5224C13.0416 10.6809 14.1346 10.0469 15.3236 9.66304ZM13.1689 12.263L13.2031 14.2942C13.2053 14.4258 13.1659 14.5547 13.0905 14.6626C12.9229 14.9026 12.7761 15.1565 12.6518 15.4216C12.596 15.5407 12.5039 15.6392 12.3888 15.703L10.6111 16.6876C10.4556 17.5557 10.4577 18.4448 10.6174 19.3122L12.3897 20.2975C12.5039 20.361 12.5954 20.4588 12.6512 20.577C12.7782 20.8462 12.9263 21.1048 13.0942 21.3506C13.1672 21.4574 13.2052 21.5843 13.2031 21.7137L13.1689 23.7369C13.8444 24.3076 14.617 24.7524 15.4497 25.0502L17.1869 24.0106C17.2969 23.9447 17.4245 23.9143 17.5524 23.9235C17.8504 23.9448 18.1496 23.9448 18.4476 23.9235C18.5758 23.9143 18.7036 23.9448 18.8138 24.0109L20.5566 25.0567C21.3866 24.7542 22.1566 24.3074 22.8312 23.737L22.797 21.7058C22.7948 21.5742 22.8342 21.4453 22.9095 21.3374C23.0772 21.0974 23.2239 20.8435 23.3482 20.5784C23.4041 20.4593 23.4961 20.3608 23.6113 20.297L25.389 19.3124C25.5445 18.4443 25.5423 17.5552 25.3826 16.6878L23.6104 15.7025C23.4957 15.6387 23.4039 15.5404 23.3482 15.4216C23.2239 15.1565 23.0772 14.9026 22.9095 14.6626C22.8342 14.5547 22.7948 14.4258 22.797 14.2942L22.8312 12.2631C22.1556 11.6924 21.3831 11.2476 20.5504 10.9498L18.8131 11.9894C18.7031 12.0553 18.5755 12.0857 18.4476 12.0765C18.1496 12.0552 17.8504 12.0552 17.5524 12.0765C17.4243 12.0857 17.2964 12.0552 17.1863 11.9891L15.4434 10.9434C14.6135 11.2458 13.8434 11.6926 13.1689 12.263Z" fill="#6E6E6E"/>
</svg>
